<?xml version="1.0" encoding="UTF-8"?>
<svg id="_图层_2" data-name="图层 2" xmlns="http://www.w3.org/2000/svg" viewBox="0 0 518.93 713.99">
  <defs>
    <style>
      .cls-1 {
        fill: white;
      }
    </style>
  </defs>
  <g id="Blue">
    <g id="_图层_2-2" data-name="图层 2">
      <path class="cls-1" d="m518.93,149.05c0,35.2-28.53,63.73-63.73,63.73s-63.73-28.53-63.73-63.73,28.53-63.73,63.73-63.73,63.73,28.53,63.73,63.73"/>
      <path class="cls-1" d="m516.37,318.22c0,3.91.7,243.68,0,247.38-5.35,28.3-31.28,49.71-61.15,49.71s-57.03-22.93-61.14-52.71c-.38-2.76,0-241.52,0-244.38,0-33.77,27.38-61.15,61.14-61.15s61.15,27.38,61.15,61.15"/>
      <path class="cls-1" d="m293.85,52.93C280.35,48.04,40.15,2.36,27.71.66,15.28-1.03,0-1.41,0,24.31v667.39c.04-2.93,1.11,25.46,23.53,22,24.15-3.73,258.11-51.94,264.99-53.92,6.88-1.98,19.38-11.19,19.38-26.87V74.14c0-6.9-.53-16.31-14.04-21.2Zm-188.69,82.09c5.35-28.3,31.28-49.71,61.15-49.71s57.03,22.93,61.14,52.71c.38,2.76,0,241.52,0,244.38,0,33.77-27.38,61.15-61.14,61.15s-61.15-27.38-61.15-61.15c0-3.91-.7-243.68,0-247.38Zm61.16,480.28c-35.2,0-63.73-28.53-63.73-63.73s28.53-63.73,63.73-63.73,63.73,28.53,63.73,63.73-28.53,63.73-63.73,63.73Z"/>
    </g>
  </g>
</svg>